0
SECTION
2
HEADER
9
$INSUNITS
70
4
9
$ACADVER
1
AC1014
9
$HANDSEED
5
FFFF
0
ENDSEC
0
SECTION
2
TABLES
0
TABLE
2
VPORT
5
8
100
AcDbSymbolTable
0
ENDTAB
0
TABLE
2
LTYPE
5
5
100
AcDbSymbolTable
0
LTYPE
5
14
100
AcDbSymbolTableRecord
100
AcDbLinetypeTableRecord
2
BYBLOCK
70
0
0
LTYPE
5
15
100
AcDbSymbolTableRecord
100
AcDbLinetypeTableRecord
2
BYLAYER
70
0
0
ENDTAB
0
TABLE
2
LAYER
5
2
100
AcDbSymbolTable
70
2
0
LAYER
5
50
100
AcDbSymbolTableRecord
100
AcDbLayerTableRecord
2
0
70
0
6
CONTINUOUS
0
ENDTAB
0
TABLE
2
STYLE
5
3
100
AcDbSymbolTable
70
1
0
STYLE
5
11
100
AcDbSymbolTableRecord
100
AcDbTextStyleTableRecord
2
STANDARD
70
0
0
ENDTAB
0
TABLE
2
VIEW
5
6
100
AcDbSymbolTable
70
0
0
ENDTAB
0
TABLE
2
UCS
5
7
100
AcDbSymbolTable
70
0
0
ENDTAB
0
TABLE
2
APPID
5
9
100
AcDbSymbolTable
70
2
0
APPID
5
12
100
AcDbSymbolTableRecord
100
AcDbRegAppTableRecord
2
ACAD
70
0
0
ENDTAB
0
TABLE
2
DIMSTYLE
5
A
100
AcDbSymbolTable
70
1
0
ENDTAB
0
TABLE
2
BLOCK_RECORD
5
1
100
AcDbSymbolTable
70
1
0
BLOCK_RECORD
5
1F
100
AcDbSymbolTableRecord
100
AcDbBlockTableRecord
2
*MODEL_SPACE
0
BLOCK_RECORD
5
1B
100
AcDbSymbolTableRecord
100
AcDbBlockTableRecord
2
*PAPER_SPACE
0
ENDTAB
0
ENDSEC
0
SECTION
2
BLOCKS
0
BLOCK
5
20
100
AcDbEntity
100
AcDbBlockBegin
2
*MODEL_SPACE
0
ENDBLK
5
21
100
AcDbEntity
100
AcDbBlockEnd
0
BLOCK
5
1C
100
AcDbEntity
100
AcDbBlockBegin
2
*PAPER_SPACE
0
ENDBLK
5
1D
100
AcDbEntity
100
AcDbBlockEnd
0
ENDSEC
0
SECTION
2
ENTITIES
0
LWPOLYLINE
5
100
100
AcDbEntity
8
0
100
AcDbPolyline
90
58
70
1
43
0.0
10
463.00000000000011
20
4.9999999999999929
42
-0.41421356237309687
10
459.00000000000011
20
9.0000000000000036
10
459.00000000000006
20
30
10
389.00000000000006
20
30
10
389.00000000000006
20
9.0000000000000018
42
-0.41421356237309426
10
385.00000000000006
20
5
10
376.00000000000011
20
5
10
376.00000000000011
20
-61.000000000000014
10
366.00000000000011
20
-61
10
366.00000000000011
20
5
10
357
20
4.9999999999999929
42
-0.41421356237309687
10
353.00000000000006
20
9.0000000000000036
10
353.00000000000006
20
30
10
283.00000000000006
20
30
10
283.00000000000006
20
9.0000000000000018
42
-0.41421356237309548
10
279.00000000000006
20
5
10
270.00000000000006
20
5
10
270.00000000000006
20
-61.000000000000014
10
260.00000000000006
20
-61
10
260.00000000000006
20
5
10
251
20
5.0000000000000107
42
-0.41421356237309553
10
247.00000000000003
20
9.0000000000000036
10
247.00000000000003
20
30
10
177.00000000000003
20
30
10
177.00000000000003
20
9.0000000000000018
42
-0.41421356237309548
10
173.00000000000006
20
5
10
164.00000000000003
20
5
10
164.00000000000003
20
-61.000000000000014
10
154.00000000000003
20
-61
10
154.00000000000003
20
5
10
145
20
5.0000000000000249
42
-0.41421356237309459
10
141
20
9.0000000000000036
10
141
20
30
10
71.000000000000014
20
30
10
71.000000000000014
20
9.0000000000000018
42
-0.41421356237309481
10
67.000000000000014
20
5
10
58.000000000000007
20
5
10
58.000000000000007
20
-61.000000000000014
10
48.000000000000007
20
-61
10
48.000000000000007
20
5
10
39
20
4.9999999999999956
42
-0.41421356237309598
10
35
20
9.0000000000000036
10
35
20
30
10
-35
20
30
10
-35
20
9.0000000000000018
42
-0.41421356237309515
10
-39
20
5
10
-48.000000000000007
20
5
10
-48.000000000000028
20
-59.500000000000014
42
-0.41421356237308815
10
-49.500000000000014
20
-61
10
-100.50312787393112
20
-61.000000000000007
42
-0.56582563738666058
10
-101.82743645773004
20
-58.795580540532498
10
-52.999999999999972
20
33.000000000000007
10
477.00000000000017
20
33.000000000000028
10
525.82743645773007
20
-58.795580540532455
42
-0.56582563738669756
10
524.50312787393113
20
-61
10
473.50000000000023
20
-61.00000000000005
42
-0.41421356237309503
10
472.00000000000017
20
-59.499999999999993
10
472.00000000000017
20
5
0
ENDSEC
0
SECTION
2
OBJECTS
0
DICTIONARY
5
C
100
AcDbDictionary
3
ACAD_GROUP
350
D
3
ACAD_MLINESTYLE
350
17
0
DICTIONARY
5
D
100
AcDbDictionary
0
DICTIONARY
5
1A
330
C
100
AcDbDictionary
0
DICTIONARY
5
17
100
AcDbDictionary
0
ENDSEC
0
EOF
