0
SECTION
2
HEADER
9
$INSUNITS
70
4
9
$ACADVER
1
AC1014
9
$HANDSEED
5
FFFF
0
ENDSEC
0
SECTION
2
TABLES
0
TABLE
2
VPORT
5
8
100
AcDbSymbolTable
0
ENDTAB
0
TABLE
2
LTYPE
5
5
100
AcDbSymbolTable
0
LTYPE
5
14
100
AcDbSymbolTableRecord
100
AcDbLinetypeTableRecord
2
BYBLOCK
70
0
0
LTYPE
5
15
100
AcDbSymbolTableRecord
100
AcDbLinetypeTableRecord
2
BYLAYER
70
0
0
ENDTAB
0
TABLE
2
LAYER
5
2
100
AcDbSymbolTable
70
2
0
LAYER
5
50
100
AcDbSymbolTableRecord
100
AcDbLayerTableRecord
2
0
70
0
6
CONTINUOUS
0
ENDTAB
0
TABLE
2
STYLE
5
3
100
AcDbSymbolTable
70
1
0
STYLE
5
11
100
AcDbSymbolTableRecord
100
AcDbTextStyleTableRecord
2
STANDARD
70
0
0
ENDTAB
0
TABLE
2
VIEW
5
6
100
AcDbSymbolTable
70
0
0
ENDTAB
0
TABLE
2
UCS
5
7
100
AcDbSymbolTable
70
0
0
ENDTAB
0
TABLE
2
APPID
5
9
100
AcDbSymbolTable
70
2
0
APPID
5
12
100
AcDbSymbolTableRecord
100
AcDbRegAppTableRecord
2
ACAD
70
0
0
ENDTAB
0
TABLE
2
DIMSTYLE
5
A
100
AcDbSymbolTable
70
1
0
ENDTAB
0
TABLE
2
BLOCK_RECORD
5
1
100
AcDbSymbolTable
70
1
0
BLOCK_RECORD
5
1F
100
AcDbSymbolTableRecord
100
AcDbBlockTableRecord
2
*MODEL_SPACE
0
BLOCK_RECORD
5
1B
100
AcDbSymbolTableRecord
100
AcDbBlockTableRecord
2
*PAPER_SPACE
0
ENDTAB
0
ENDSEC
0
SECTION
2
BLOCKS
0
BLOCK
5
20
100
AcDbEntity
100
AcDbBlockBegin
2
*MODEL_SPACE
0
ENDBLK
5
21
100
AcDbEntity
100
AcDbBlockEnd
0
BLOCK
5
1C
100
AcDbEntity
100
AcDbBlockBegin
2
*PAPER_SPACE
0
ENDBLK
5
1D
100
AcDbEntity
100
AcDbBlockEnd
0
ENDSEC
0
SECTION
2
ENTITIES
0
LWPOLYLINE
5
100
100
AcDbEntity
8
0
100
AcDbPolyline
90
44
70
1
43
0.0
10
-473.50000000000011
20
60.999999999999979
42
-0.41421356237309503
10
-472.00000000000011
20
59.499999999999993
10
-472
20
46
10
-467
20
41
10
-442.72733393121433
20
41.000000000000043
42
-0.22080364545670655
10
-437.76226994986837
20
38.695013666383119
10
-433.1662719655618
20
33.255359385138831
42
0.46424101326324207
10
-414.83372803443831
20
33.255359385138846
10
-410.23773005013169
20
38.695013666383147
42
-0.22080364545669201
10
-405.27266606878578
20
41
10
-336.72733393121433
20
41.000000000000085
42
-0.22080364545671063
10
-331.76226994986837
20
38.695013666383119
10
-327.1662719655618
20
33.255359385138846
42
0.46424101326324252
10
-308.83372803443831
20
33.255359385138846
10
-304.23773005013169
20
38.695013666383112
42
-0.22080364545669981
10
-299.27266606878572
20
41
10
-230.72733393121433
20
41
42
-0.22080364545669851
10
-225.76226994986837
20
38.695013666383119
10
-221.16627196556178
20
33.255359385138846
42
0.46424101326324263
10
-202.83372803443828
20
33.255359385138846
10
-198.23773005013169
20
38.695013666383112
42
-0.22080364545669981
10
-193.27266606878572
20
41
10
-124.72733393121429
20
41.000000000000007
42
-0.22080364545669981
10
-119.76226994986834
20
38.695013666383119
10
-115.16627196556175
20
33.255359385138846
42
0.46424101326324435
10
-96.83372803443828
20
33.255359385138846
10
-92.237730050131688
20
38.695013666383119
42
-0.22080364545669934
10
-87.272666068785739
20
41
10
-18.727333931214275
20
41
42
-0.22080364545669839
10
-13.762269949868331
20
38.695013666383119
10
-9.1662719655617408
20
33.255359385138846
42
0.46424101326324441
10
9.1662719655617444
20
33.255359385138846
10
13.762269949868331
20
38.695013666383119
42
-0.22080364545669806
10
18.727333931214272
20
41
10
42.999999999999972
20
41
10
47.999999999999972
20
46
10
47.999999999999972
20
59.499999999999993
42
-0.41421356237308815
10
49.499999999999972
20
61
10
100.50312787393108
20
61.000000000000021
42
-0.56582563738666758
10
101.82743645773002
20
58.79558054053247
10
52.999999999999972
20
-33
10
-477
20
-32.999999999999986
10
-525.82743645773007
20
58.795580540532455
42
-0.56582563738669756
10
-524.50312787393113
20
61
0
ENDSEC
0
SECTION
2
OBJECTS
0
DICTIONARY
5
C
100
AcDbDictionary
3
ACAD_GROUP
350
D
3
ACAD_MLINESTYLE
350
17
0
DICTIONARY
5
D
100
AcDbDictionary
0
DICTIONARY
5
1A
330
C
100
AcDbDictionary
0
DICTIONARY
5
17
100
AcDbDictionary
0
ENDSEC
0
EOF
